<?xml version="1.0" encoding="UTF-8"?>
<svg xmlns="http://www.w3.org/2000/svg" viewBox="0 0 64 64" shape-rendering="geometricPrecision">
  <defs>
    <linearGradient id="bg" x1="10" y1="8" x2="54" y2="58" gradientUnits="userSpaceOnUse">
      <stop offset="0" stop-color="#02030a"/>
      <stop offset="1" stop-color="#0b1220"/>
    </linearGradient>
    <radialGradient id="glow" cx="0" cy="0" r="1" gradientUnits="userSpaceOnUse" gradientTransform="translate(18 16) rotate(50) scale(48 44)">
      <stop offset="0" stop-color="#22e8ff" stop-opacity="0.22"/>
      <stop offset="0.55" stop-color="#ff38da" stop-opacity="0.14"/>
      <stop offset="1" stop-color="#35ff93" stop-opacity="0"/>
    </radialGradient>
    <linearGradient id="ring" x1="10" y1="6" x2="54" y2="58" gradientUnits="userSpaceOnUse">
      <stop offset="0" stop-color="#22e8ff"/>
      <stop offset="0.55" stop-color="#ff38da"/>
      <stop offset="1" stop-color="#35ff93"/>
    </linearGradient>
    <linearGradient id="glass" x1="12" y1="10" x2="54" y2="54" gradientUnits="userSpaceOnUse">
      <stop offset="0" stop-color="#ffffff" stop-opacity="0.16"/>
      <stop offset="0.35" stop-color="#ffffff" stop-opacity="0.06"/>
      <stop offset="1" stop-color="#ffffff" stop-opacity="0"/>
    </linearGradient>
  </defs>

  <rect x="6" y="6" width="52" height="52" rx="14" fill="url(#bg)"/>
  <rect x="6" y="6" width="52" height="52" rx="14" fill="url(#glow)"/>
  <rect x="7.75" y="7.75" width="48.5" height="48.5" rx="12.5" fill="none" stroke="url(#ring)" stroke-width="3.5" opacity="0.9"/>
  <path d="M16 14c9-4 25-3 32 2" fill="none" stroke="url(#glass)" stroke-width="10" stroke-linecap="round"/>

  <!-- Documento + check (simple y legible en 16px) -->
  <path d="M23 18h16l6 6v21a4 4 0 0 1-4 4H23a4 4 0 0 1-4-4V22a4 4 0 0 1 4-4Z" fill="#ffffff" fill-opacity="0.92"/>
  <path d="M39 18v8h8" fill="none" stroke="#cbd5e1" stroke-width="3" stroke-linejoin="round" stroke-linecap="round" opacity="0.9"/>
  <path d="M25 30h16" stroke="#94a3b8" stroke-width="3" stroke-linecap="round" opacity="0.9"/>
  <path d="M25 36h12" stroke="#94a3b8" stroke-width="3" stroke-linecap="round" opacity="0.75"/>
  <path d="M26 44.5l4.1 4.1L39 39.6" fill="none" stroke="#35ff93" stroke-width="4" stroke-linecap="round" stroke-linejoin="round"/>
</svg>
