<?xml version="1.0" encoding="UTF-8"?>
<svg xmlns="http://www.w3.org/2000/svg" viewBox="0 0 64 64" shape-rendering="geometricPrecision">
  <defs>
    <linearGradient id="bg" x1="10" y1="8" x2="54" y2="58" gradientUnits="userSpaceOnUse">
      <stop offset="0" stop-color="#02030a"/>
      <stop offset="1" stop-color="#0b1220"/>
    </linearGradient>
    <radialGradient id="glow" cx="0" cy="0" r="1" gradientUnits="userSpaceOnUse" gradientTransform="translate(18 16) rotate(50) scale(48 44)">
      <stop offset="0" stop-color="#35ff93" stop-opacity="0.20"/>
      <stop offset="0.55" stop-color="#22e8ff" stop-opacity="0.12"/>
      <stop offset="1" stop-color="#35ff93" stop-opacity="0"/>
    </radialGradient>
    <linearGradient id="ring" x1="10" y1="6" x2="54" y2="58" gradientUnits="userSpaceOnUse">
      <stop offset="0" stop-color="#35ff93"/>
      <stop offset="0.55" stop-color="#22e8ff"/>
      <stop offset="1" stop-color="#ff38da"/>
    </linearGradient>
    <linearGradient id="glass" x1="12" y1="10" x2="54" y2="54" gradientUnits="userSpaceOnUse">
      <stop offset="0" stop-color="#ffffff" stop-opacity="0.14"/>
      <stop offset="0.35" stop-color="#ffffff" stop-opacity="0.05"/>
      <stop offset="1" stop-color="#ffffff" stop-opacity="0"/>
    </linearGradient>
  </defs>

  <rect x="6" y="6" width="52" height="52" rx="14" fill="url(#bg)"/>
  <rect x="6" y="6" width="52" height="52" rx="14" fill="url(#glow)"/>
  <rect x="7.75" y="7.75" width="48.5" height="48.5" rx="12.5" fill="none" stroke="url(#ring)" stroke-width="3.5" opacity="0.9"/>
  <path d="M16 14c9-4 25-3 32 2" fill="none" stroke="url(#glass)" stroke-width="10" stroke-linecap="round"/>

  <!-- Alumno: birrete (bold) -->
  <path d="M18 29l14-6 14 6-14 6-14-6Z" fill="#ffffff" fill-opacity="0.10" stroke="#22e8ff" stroke-width="2.6" stroke-linejoin="round"/>
  <path d="M24 33v5.8c2.2 2 5.2 3 8 3s5.8-1 8-3V33" fill="none" stroke="#cbd5e1" stroke-width="2.6" stroke-linecap="round" opacity="0.92"/>
  <path d="M46 29v8" stroke="#35ff93" stroke-width="3" stroke-linecap="round"/>
  <circle cx="46" cy="39" r="1.8" fill="#35ff93" opacity="0.95"/>
</svg>
