<svg xmlns="http://www.w3.org/2000/svg" viewBox="0 0 64 64" role="img" aria-label="Dashboard" shape-rendering="geometricPrecision">
  <defs>
    <linearGradient id="bg" x1="10" y1="8" x2="54" y2="58" gradientUnits="userSpaceOnUse">
      <stop offset="0" stop-color="#02030a"/>
      <stop offset="1" stop-color="#0b1220"/>
    </linearGradient>
    <radialGradient id="glow" cx="0" cy="0" r="1" gradientUnits="userSpaceOnUse" gradientTransform="translate(18 16) rotate(50) scale(48 44)">
      <stop offset="0" stop-color="#22e8ff" stop-opacity="0.20"/>
      <stop offset="0.55" stop-color="#ff38da" stop-opacity="0.14"/>
      <stop offset="1" stop-color="#35ff93" stop-opacity="0"/>
    </radialGradient>
    <linearGradient id="ring" x1="10" y1="6" x2="54" y2="58" gradientUnits="userSpaceOnUse">
      <stop offset="0" stop-color="#22e8ff"/>
      <stop offset="0.55" stop-color="#ff38da"/>
      <stop offset="1" stop-color="#35ff93"/>
    </linearGradient>
    <linearGradient id="glass" x1="12" y1="10" x2="54" y2="54" gradientUnits="userSpaceOnUse">
      <stop offset="0" stop-color="#ffffff" stop-opacity="0.16"/>
      <stop offset="0.35" stop-color="#ffffff" stop-opacity="0.06"/>
      <stop offset="1" stop-color="#ffffff" stop-opacity="0"/>
    </linearGradient>
  </defs>

  <rect x="6" y="6" width="52" height="52" rx="14" fill="url(#bg)"/>
  <rect x="6" y="6" width="52" height="52" rx="14" fill="url(#glow)"/>
  <rect x="7.75" y="7.75" width="48.5" height="48.5" rx="12.5" fill="none" stroke="url(#ring)" stroke-width="3.5" opacity="0.9"/>
  <path d="M16 14c9-4 25-3 32 2" fill="none" stroke="url(#glass)" stroke-width="10" stroke-linecap="round"/>

  <!-- Birrete (marca) -->
  <path d="M32 15l16 7-16 7-16-7 16-7Z" fill="#ffffff" fill-opacity="0.12" stroke="#22e8ff" stroke-width="2.2" stroke-linejoin="round"/>
  <path d="M24 26v3.8c0 2.2 3.6 4 8 4s8-1.8 8-4V26" fill="none" stroke="#cbd5e1" stroke-width="2.2" stroke-linecap="round" opacity="0.92"/>
  <path d="M48 22v7" stroke="#35ff93" stroke-width="2.4" stroke-linecap="round" opacity="0.95"/>
  <circle cx="48" cy="29" r="2" fill="#35ff93" opacity="0.95"/>

  <!-- Panel/tablón -->
  <rect x="18" y="32" width="28" height="18" rx="6" fill="#ffffff" fill-opacity="0.92"/>
  <path d="M22 38h12" stroke="#94a3b8" stroke-width="2.6" stroke-linecap="round" opacity="0.9"/>
  <path d="M22 43h9" stroke="#94a3b8" stroke-width="2.6" stroke-linecap="round" opacity="0.75"/>

  <!-- Circuito (acento) -->
  <path d="M22 47h7v-4h8v4h7" fill="none" stroke="#35ff93" stroke-width="2.6" stroke-linecap="round" stroke-linejoin="round"/>
  <circle cx="22" cy="47" r="2.2" fill="#35ff93"/>
  <circle cx="29" cy="47" r="2.2" fill="#35ff93"/>
  <circle cx="37" cy="43" r="2.2" fill="#35ff93"/>
  <circle cx="45" cy="47" r="2.2" fill="#35ff93"/>
</svg>
